<?xml version="1.0" encoding="UTF-8" standalone="no"?>
<!-- Created with Inkscape (http://www.inkscape.org/) -->

<svg
   width="120.98265mm"
   height="121.12319mm"
   viewBox="0 0 120.98265 121.12319"
   version="1.1"
   id="svg11070"
   sodipodi:docname="close-icon.svg"
   inkscape:version="1.1.2 (0a00cf5339, 2022-02-04)"
   xmlns:inkscape="http://www.inkscape.org/namespaces/inkscape"
   xmlns:sodipodi="http://sodipodi.sourceforge.net/DTD/sodipodi-0.dtd"
   xmlns="http://www.w3.org/2000/svg"
   xmlns:svg="http://www.w3.org/2000/svg">
  <sodipodi:namedview
     id="namedview11072"
     pagecolor="#ffffff"
     bordercolor="#666666"
     borderopacity="1.0"
     inkscape:pageshadow="2"
     inkscape:pageopacity="0.0"
     inkscape:pagecheckerboard="0"
     inkscape:document-units="mm"
     showgrid="false"
     inkscape:zoom="0.80087682"
     inkscape:cx="156.70325"
     inkscape:cy="273.45029"
     inkscape:window-width="2560"
     inkscape:window-height="1376"
     inkscape:window-x="0"
     inkscape:window-y="27"
     inkscape:window-maximized="1"
     inkscape:current-layer="g11161" />
  <defs
     id="defs11067" />
  <g
     inkscape:label="Layer 1"
     inkscape:groupmode="layer"
     id="layer1"
     transform="translate(-210.16275,-83.493203)">
    <g
       id="g11161">
      <path
         style="fill:#b9b9b9;fill-opacity:1;stroke-width:0.264583"
         d="m 266.2877,204.71347 c 0.191,-0.0764 0.4192,-0.067 0.50712,0.0209 0.0879,0.0879 -0.0684,0.15045 -0.34726,0.13896 -0.30823,-0.0127 -0.37092,-0.0754 -0.15986,-0.15985 z m 28.8892,-31.96614 c 0.49365,-0.50932 0.95708,-0.92604 1.02984,-0.92604 0.0728,0 -0.27161,0.41672 -0.76526,0.92604 -0.49366,0.50933 -0.95709,0.92605 -1.02985,0.92605 -0.0728,0 0.27161,-0.41672 0.76527,-0.92605 z m 2.11666,-2.06716 c 0,-0.0455 0.38696,-0.43249 0.8599,-0.8599 l 0.85989,-0.7771 -0.7771,0.85989 c -0.72437,0.80155 -0.94269,0.98151 -0.94269,0.77711 z m -45.11146,-0.97554 c 0.26339,-0.29105 0.53842,-0.52917 0.61119,-0.52917 0.0728,0 -0.0832,0.23812 -0.3466,0.52917 -0.26339,0.29104 -0.53843,0.52916 -0.61119,0.52916 -0.0728,0 0.0832,-0.23812 0.3466,-0.52916 z m 2.11667,-2.11667 c 0.26339,-0.29104 0.53842,-0.52917 0.61118,-0.52917 0.0728,0 -0.0832,0.23813 -0.3466,0.52917 -0.26339,0.29104 -0.53842,0.52917 -0.61118,0.52917 -0.0728,0 0.0832,-0.23813 0.3466,-0.52917 z m 27.61521,-5.22552 c -0.32911,-0.41965 -0.31975,-0.42901 0.0999,-0.0999 0.44073,0.34565 0.58089,0.56292 0.36313,0.56292 -0.0549,0 -0.2633,-0.20836 -0.46302,-0.46302 z m -36.47875,0.0985 c 0,-0.0549 0.20836,-0.2633 0.46302,-0.46302 0.41964,-0.32911 0.429,-0.31975 0.0999,0.0999 -0.34564,0.44073 -0.56291,0.58089 -0.56291,0.36313 z m 33.18856,-3.40583 -0.7771,-0.8599 0.85989,0.77711 c 0.47295,0.4274 0.8599,0.81436 0.8599,0.85989 0,0.20441 -0.21832,0.0245 -0.94269,-0.7771 z m 3.04511,-10.98021 -0.9118,-0.99219 0.99219,0.9118 c 0.92351,0.84868 1.11384,1.07258 0.9118,1.07258 -0.0442,0 -0.4907,-0.44649 -0.99219,-0.99219 z m 0.0143,-8.13594 c 0.34177,-0.3638 0.68093,-0.66146 0.7537,-0.66146 0.0728,0 -0.14735,0.29766 -0.48912,0.66146 -0.34178,0.3638 -0.68094,0.66146 -0.7537,0.66146 -0.0728,0 0.14734,-0.29766 0.48912,-0.66146 z m -32.2992,-9.85573 -0.64143,-0.7276 0.7276,0.64143 c 0.68006,0.59952 0.84894,0.81378 0.64144,0.81378 -0.0474,0 -0.37482,-0.32743 -0.72761,-0.72761 z m -1.86581,-1.85208 c -0.3291,-0.41965 -0.31974,-0.42901 0.0999,-0.0999 0.44073,0.34565 0.58089,0.56292 0.36313,0.56292 -0.0549,0 -0.2633,-0.20836 -0.46303,-0.46302 z m -1.56799,-1.5875 -0.9118,-0.99219 0.99219,0.9118 c 0.5457,0.50149 0.99219,0.94797 0.99219,0.99219 0,0.20204 -0.2239,0.0117 -1.07258,-0.9118 z m 8.97633,-5.02709 c -0.32911,-0.41964 -0.31975,-0.429 0.0999,-0.0999 0.44073,0.34564 0.58089,0.56291 0.36313,0.56291 -0.0549,0 -0.2633,-0.20835 -0.46302,-0.46302 z m -2.09196,-2.11666 -1.44617,-1.52136 1.52136,1.44617 c 1.41338,1.34354 1.64255,1.59654 1.44617,1.59654 -0.0414,0 -0.72596,-0.68461 -1.52136,-1.52135 z M 226.7821,101.97129 c 0.26339,-0.29104 0.53842,-0.52917 0.61118,-0.52917 0.0728,0 -0.0832,0.23813 -0.34659,0.52917 -0.26339,0.29104 -0.53843,0.52917 -0.61119,0.52917 -0.0728,0 0.0832,-0.23813 0.3466,-0.52917 z"
         id="path11175" />
      <path
         style="fill:#a3a3a3;fill-opacity:1;stroke-width:0.264583"
         d="m 253.24044,168.64629 c 0.26339,-0.29104 0.53842,-0.52916 0.61118,-0.52916 0.0728,0 -0.0832,0.23812 -0.3466,0.52916 -0.26339,0.29104 -0.53842,0.52917 -0.61118,0.52917 -0.0728,0 0.0832,-0.23813 0.3466,-0.52917 z m 46.56666,-0.52916 c 0.56839,-0.58209 1.09297,-1.05834 1.16573,-1.05834 0.0728,0 -0.33275,0.47625 -0.90114,1.05834 -0.56839,0.58208 -1.09297,1.05833 -1.16573,1.05833 -0.0728,0 0.33276,-0.47625 0.90114,-1.05833 z m -15.35578,-3.24115 -1.31297,-1.38906 1.38907,1.31297 c 1.29074,1.22003 1.5104,1.46515 1.31297,1.46515 -0.0419,0 -0.66693,-0.62508 -1.38907,-1.38906 z m -28.43276,1.04169 c 0,-0.0455 0.38695,-0.43249 0.8599,-0.8599 l 0.85989,-0.7771 -0.7771,0.85989 c -0.72437,0.80155 -0.94269,0.98151 -0.94269,0.77711 z m -13.09687,-0.97554 c 0.26339,-0.29105 0.53842,-0.52917 0.61118,-0.52917 0.0728,0 -0.0832,0.23812 -0.3466,0.52917 -0.26339,0.29104 -0.53842,0.52916 -0.61118,0.52916 -0.0728,0 0.0832,-0.23812 0.3466,-0.52916 z m 36.87562,-18.71928 c -0.32911,-0.41964 -0.31975,-0.429 0.0999,-0.0999 0.44073,0.34564 0.58089,0.56292 0.36312,0.56292 -0.0549,0 -0.2633,-0.20836 -0.46302,-0.46303 z m 2.67959,-7.0281 c 0,-0.0455 0.38695,-0.43249 0.85989,-0.85989 l 0.8599,-0.77711 -0.77711,0.8599 c -0.72437,0.80154 -0.94268,0.98151 -0.94268,0.7771 z m -30.96529,-6.99481 -1.44617,-1.52136 1.52135,1.44617 c 0.83675,0.7954 1.52135,1.48001 1.52135,1.52136 0,0.19638 -0.253,-0.0328 -1.59653,-1.44617 z m -2.24987,-16.27188 -1.31297,-1.38906 1.38906,1.31297 c 0.76399,0.72213 1.38906,1.34721 1.38906,1.38906 0,0.19743 -0.24511,-0.0222 -1.46515,-1.31297 z m 42.60786,-0.46302 c 0.71667,-0.7276 1.36256,-1.32292 1.43532,-1.32292 0.0728,0 -0.45407,0.59532 -1.17073,1.32292 -0.71667,0.72761 -1.36256,1.32292 -1.43532,1.32292 -0.0728,0 0.45407,-0.59531 1.17073,-1.32292 z m -64.02916,-14.55208 c 0.26339,-0.29104 0.53842,-0.52917 0.61118,-0.52917 0.0728,0 -0.0832,0.23813 -0.3466,0.52917 -0.26339,0.29104 -0.53842,0.52916 -0.61118,0.52916 -0.0728,0 0.0832,-0.23812 0.3466,-0.52916 z"
         id="path11173" />
      <path
         style="fill:#8c8c8c;fill-opacity:1;stroke-width:0.264583"
         d="m 288.1403,168.58015 -0.50403,-0.59532 0.59531,0.50403 c 0.55945,0.47367 0.71576,0.6866 0.50403,0.6866 -0.0502,0 -0.3181,-0.26789 -0.59531,-0.59531 z m -1.71468,-1.7198 -0.64143,-0.7276 0.7276,0.64143 c 0.68006,0.59952 0.84894,0.81378 0.64143,0.81378 -0.0474,0 -0.37481,-0.32742 -0.7276,-0.72761 z M 258.13523,163.801 c 0,-0.0455 0.38695,-0.43249 0.85989,-0.85989 l 0.8599,-0.77711 -0.77711,0.8599 c -0.72437,0.80154 -0.94268,0.98151 -0.94268,0.7771 z m 3.96875,-18.27335 c 0,-0.0549 0.20836,-0.2633 0.46302,-0.46302 0.41964,-0.32911 0.429,-0.31975 0.0999,0.0999 -0.34565,0.44073 -0.56292,0.58089 -0.56292,0.36313 z m 69.07714,-4.55236 c 0.0127,-0.30823 0.0754,-0.37092 0.15985,-0.15986 0.0764,0.191 0.067,0.4192 -0.0209,0.50712 -0.0879,0.0879 -0.15045,-0.0684 -0.13896,-0.34726 z m -46.32297,-4.17889 c 0,-0.0549 0.20835,-0.2633 0.46302,-0.46303 0.41964,-0.3291 0.429,-0.31974 0.0999,0.0999 -0.34564,0.44073 -0.56291,0.58089 -0.56291,0.36313 z m -30.72542,-1.95063 c -0.32911,-0.41964 -0.31975,-0.429 0.0999,-0.0999 0.44073,0.34565 0.58089,0.56292 0.36313,0.56292 -0.0549,0 -0.2633,-0.20836 -0.46302,-0.46302 z m 34.29729,-15.94115 c 0.56839,-0.58208 1.09297,-1.05833 1.16573,-1.05833 0.0728,0 -0.33276,0.47625 -0.90115,1.05833 -0.56838,0.58209 -1.09296,1.05834 -1.16572,1.05834 -0.0728,0 0.33275,-0.47625 0.90114,-1.05834 z"
         id="path11171" />
      <path
         style="fill:#767676;fill-opacity:1;stroke-width:0.264583"
         d="m 229.52648,188.82077 c -0.32911,-0.41964 -0.31975,-0.429 0.0999,-0.0999 0.44073,0.34564 0.58089,0.56291 0.36313,0.56291 -0.0549,0 -0.2633,-0.20836 -0.46302,-0.46302 z m 84.70042,-2.54729 c 0,-0.0549 0.20836,-0.2633 0.46302,-0.46302 0.41964,-0.32911 0.429,-0.31975 0.0999,0.0999 -0.34564,0.44073 -0.56291,0.58088 -0.56291,0.36312 z m -20.93584,-12.53396 c -0.32911,-0.41964 -0.31975,-0.429 0.0999,-0.0999 0.44073,0.34564 0.58089,0.56291 0.36312,0.56291 -0.0549,0 -0.2633,-0.20836 -0.46302,-0.46302 z m -2.36752,-2.38125 -0.64144,-0.7276 0.72761,0.64143 c 0.40018,0.35279 0.7276,0.68021 0.7276,0.7276 0,0.20751 -0.21426,0.0386 -0.81377,-0.64143 z m -30.40706,-9.98802 c 0.49365,-0.50932 0.95708,-0.92604 1.02984,-0.92604 0.0728,0 -0.2716,0.41672 -0.76526,0.92604 -0.49365,0.50932 -0.95708,0.92604 -1.02984,0.92604 -0.0728,0 0.2716,-0.41672 0.76526,-0.92604 z m 1.85208,-1.85208 c 0.34178,-0.3638 0.68094,-0.66146 0.7537,-0.66146 0.0728,0 -0.14734,0.29766 -0.48912,0.66146 -0.34177,0.3638 -0.68093,0.66146 -0.7537,0.66146 -0.0728,0 0.14735,-0.29766 0.48912,-0.66146 z m -2.91042,-11.32759 c 0,-0.0455 0.38696,-0.43248 0.8599,-0.85989 l 0.8599,-0.77711 -0.77711,0.8599 c -0.72437,0.80154 -0.94269,0.98151 -0.94269,0.7771 z m 71.72298,-1.65904 c 0.0127,-0.30823 0.0754,-0.37092 0.15985,-0.15986 0.0764,0.191 0.067,0.4192 -0.0209,0.50712 -0.0879,0.0879 -0.15045,-0.0684 -0.13896,-0.34726 z m -71.21383,-5.86494 -0.64144,-0.7276 0.72761,0.64143 c 0.68005,0.59952 0.84894,0.81378 0.64143,0.81378 -0.0474,0 -0.37481,-0.32742 -0.7276,-0.72761 z m -1.86581,-1.85208 c -0.32911,-0.41964 -0.31975,-0.429 0.0999,-0.0999 0.44073,0.34565 0.58089,0.56292 0.36313,0.56292 -0.0549,0 -0.2633,-0.20836 -0.46302,-0.46302 z m -1.18201,-1.19062 -0.50403,-0.59532 0.59531,0.50403 c 0.55944,0.47366 0.71576,0.6866 0.50403,0.6866 -0.0502,0 -0.3181,-0.26789 -0.59531,-0.59531 z m 31.77513,-4.69636 c 0.71667,-0.7276 1.36256,-1.32291 1.43532,-1.32291 0.0728,0 -0.45407,0.59531 -1.17073,1.32291 -0.71667,0.72761 -1.36256,1.32292 -1.43532,1.32292 -0.0728,0 0.45407,-0.59531 1.17073,-1.32292 z m -4.10104,-10.15406 c 0,-0.0549 0.20836,-0.2633 0.46302,-0.46302 0.41965,-0.32911 0.42901,-0.31975 0.0999,0.0999 -0.34564,0.44073 -0.56292,0.58089 -0.56292,0.36313 z m 1.5875,-1.6199 c 0.34178,-0.3638 0.68094,-0.66146 0.7537,-0.66146 0.0728,0 -0.14734,0.29766 -0.48911,0.66146 -0.34178,0.36381 -0.68094,0.66146 -0.7537,0.66146 -0.0728,0 0.14734,-0.29765 0.48911,-0.66146 z"
         id="path11169" />
      <path
         style="fill:#606060;fill-opacity:1;stroke-width:0.264583"
         d="m 300.05504,166.1989 -0.7771,-0.8599 0.85989,0.77711 c 0.47295,0.4274 0.8599,0.81436 0.8599,0.85989 0,0.20441 -0.21832,0.0245 -0.94269,-0.7771 z m -1.47231,-1.45521 c -0.32911,-0.41965 -0.31975,-0.42901 0.0999,-0.0999 0.25467,0.19972 0.46303,0.40808 0.46303,0.46302 0,0.21777 -0.21728,0.0776 -0.56292,-0.36312 z m -1.70269,-1.71979 -0.7771,-0.8599 0.85989,0.77711 c 0.47295,0.4274 0.8599,0.81436 0.8599,0.85989 0,0.20441 -0.21832,0.0245 -0.94269,-0.7771 z m -31.99794,-6.01927 c 1.01084,-1.01865 1.89743,-1.85209 1.97019,-1.85209 0.0728,0 -0.69476,0.83344 -1.7056,1.85209 -1.01084,1.01864 -1.89743,1.85208 -1.97019,1.85208 -0.0728,0 0.69476,-0.83344 1.7056,-1.85208 z m -8.86354,-5.39157 c 0,-0.0549 0.20836,-0.2633 0.46302,-0.46302 0.41965,-0.32911 0.42901,-0.31975 0.0999,0.0999 -0.34565,0.44073 -0.56292,0.58089 -0.56292,0.36312 z m 1.05833,-1.05833 c 0,-0.0549 0.20836,-0.2633 0.46303,-0.46302 0.41964,-0.32911 0.429,-0.31975 0.0999,0.0999 -0.34564,0.44073 -0.56292,0.58089 -0.56292,0.36313 z m 5.78709,-6.97771 c -0.32911,-0.41964 -0.31975,-0.429 0.0999,-0.0999 0.25467,0.19972 0.46302,0.40808 0.46302,0.46302 0,0.21776 -0.21727,0.0776 -0.56291,-0.36313 z m 68.31714,-1.27882 c 0.0127,-0.30822 0.0754,-0.37092 0.15985,-0.15985 0.0764,0.19099 0.067,0.4192 -0.0209,0.50712 -0.0879,0.0879 -0.15045,-0.0683 -0.13896,-0.34727 z m -121.17917,-1.32291 c 0.0127,-0.30823 0.0754,-0.37092 0.15985,-0.15986 0.0764,0.191 0.067,0.4192 -0.0209,0.50712 -0.0879,0.0879 -0.15045,-0.0684 -0.13896,-0.34726 z m 48.89328,-1.36702 c -0.32911,-0.41964 -0.31975,-0.429 0.0999,-0.0999 0.44073,0.34565 0.58089,0.56292 0.36313,0.56292 -0.0549,0 -0.2633,-0.20836 -0.46302,-0.46302 z m 10.86164,-3.43958 -0.64143,-0.72761 0.7276,0.64144 c 0.68006,0.59951 0.84894,0.81377 0.64143,0.81377 -0.0474,0 -0.37481,-0.32742 -0.7276,-0.7276 z m -1.60123,-1.5875 c -0.3291,-0.41965 -0.31974,-0.42901 0.0999,-0.0999 0.44073,0.34565 0.58089,0.56292 0.36313,0.56292 -0.055,0 -0.2633,-0.20836 -0.46303,-0.46302 z m 23.04145,-4.10104 c 0.64876,-0.69123 1.21431,-1.25677 1.25677,-1.25677 0.19867,0 -0.0114,0.23755 -1.17957,1.33397 l -1.25677,1.17957 z m -9.38165,-4.96094 c 0.71666,-0.72761 1.36255,-1.32292 1.43531,-1.32292 0.0728,0 -0.45407,0.59531 -1.17073,1.32292 -0.71666,0.7276 -1.36256,1.32292 -1.43532,1.32292 -0.0728,0 0.45407,-0.59532 1.17074,-1.32292 z m -38.89375,-7.14375 c 0.71666,-0.72761 1.36255,-1.32292 1.43531,-1.32292 0.0728,0 -0.45407,0.59531 -1.17073,1.32292 -0.71666,0.7276 -1.36256,1.32291 -1.43532,1.32291 -0.0728,0 0.45407,-0.59531 1.17074,-1.32291 z m 2.77812,-2.77813 c 0.49366,-0.50932 0.95709,-0.92604 1.02985,-0.92604 0.0728,0 -0.27161,0.41672 -0.76527,0.92604 -0.49365,0.50933 -0.95708,0.92604 -1.02984,0.92604 -0.0728,0 0.27161,-0.41671 0.76526,-0.92604 z"
         id="path11167" />
      <path
         style="fill:#494949;fill-opacity:1;stroke-width:0.264583"
         d="m 269.31387,204.69973 c 0.69123,-0.0545 1.82232,-0.0545 2.51355,0 0.69122,0.0545 0.12567,0.0991 -1.25677,0.0991 -1.38245,0 -1.948,-0.0446 -1.25678,-0.0991 z m -42.29232,-18.3925 -0.50403,-0.59531 0.59531,0.50403 c 0.55945,0.47366 0.71576,0.68659 0.50403,0.68659 -0.0502,0 -0.3181,-0.26789 -0.59531,-0.59531 z m 67.22221,-25.92917 -1.84499,-1.91823 1.91823,1.84499 c 1.78165,1.71363 2.03906,1.99147 1.84499,1.99147 -0.0403,0 -0.90349,-0.8632 -1.91823,-1.91823 z m -41.13562,-5.85458 c 0,-0.0549 0.20836,-0.2633 0.46303,-0.46302 0.41964,-0.32911 0.429,-0.31975 0.0999,0.0999 -0.34564,0.44073 -0.56292,0.58089 -0.56292,0.36313 z m 1.85209,-1.88448 c 0.49365,-0.50932 0.95708,-0.92604 1.02984,-0.92604 0.0728,0 -0.2716,0.41672 -0.76526,0.92604 -0.49365,0.50932 -0.95708,0.92604 -1.02984,0.92604 -0.0728,0 0.2716,-0.41672 0.76526,-0.92604 z m 13.89062,0.39688 c 0.26339,-0.29105 0.53843,-0.52917 0.61119,-0.52917 0.0728,0 -0.0832,0.23812 -0.3466,0.52917 -0.26339,0.29104 -0.53843,0.52916 -0.61119,0.52916 -0.0728,0 0.0832,-0.23812 0.3466,-0.52916 z m 0.92604,-0.89365 c 0,-0.0549 0.20836,-0.2633 0.46303,-0.46302 0.41964,-0.32911 0.429,-0.31975 0.0999,0.0999 -0.34564,0.44073 -0.56292,0.58089 -0.56292,0.36313 z m -59.77494,-5.61069 c 0.0127,-0.30823 0.0754,-0.37092 0.15985,-0.15986 0.0764,0.191 0.067,0.4192 -0.0209,0.50712 -0.0879,0.0879 -0.15045,-0.0684 -0.13896,-0.34726 z m 121.24027,-2.35921 c 0.002,-0.87312 0.0509,-1.19841 0.10976,-0.72286 0.0589,0.47555 0.0577,1.18992 -0.003,1.5875 -0.0604,0.39757 -0.10855,0.008 -0.10706,-0.86464 z m -64.40949,-10.91406 c -0.32911,-0.41964 -0.31975,-0.429 0.0999,-0.0999 0.25467,0.19973 0.46302,0.40808 0.46302,0.46303 0,0.21776 -0.21727,0.0776 -0.56291,-0.36313 z m -2.91042,-2.91042 c -0.32911,-0.41964 -0.31975,-0.429 0.0999,-0.0999 0.44073,0.34564 0.58088,0.56292 0.36312,0.56292 -0.0549,0 -0.2633,-0.20836 -0.46302,-0.46303 z m 14.32125,-1.22437 c 0,-0.0549 0.20836,-0.2633 0.46302,-0.46302 0.41965,-0.32911 0.42901,-0.31975 0.0999,0.0999 -0.34565,0.44073 -0.56292,0.58089 -0.56292,0.36313 z m -16.7025,-1.15688 c -0.32911,-0.41964 -0.31975,-0.429 0.0999,-0.0999 0.44073,0.34564 0.58088,0.56292 0.36312,0.56292 -0.0549,0 -0.2633,-0.20836 -0.46302,-0.46303 z m 31.78375,0.36313 c 0,-0.0549 0.20836,-0.2633 0.46302,-0.46302 0.41965,-0.32911 0.42901,-0.31975 0.0999,0.0999 -0.34564,0.44073 -0.56292,0.58089 -0.56292,0.36313 z m -14.02291,-0.26458 c 0,-0.0549 0.20835,-0.2633 0.46302,-0.46303 0.41964,-0.3291 0.429,-0.31974 0.0999,0.0999 -0.34564,0.44073 -0.56291,0.58089 -0.56291,0.36313 z m 15.61041,-1.35532 c 0.34178,-0.3638 0.68094,-0.66146 0.7537,-0.66146 0.0728,0 -0.14734,0.29766 -0.48911,0.66146 -0.34178,0.36381 -0.68094,0.66146 -0.7537,0.66146 -0.0728,0 0.14734,-0.29765 0.48911,-0.66146 z m 1.85209,-1.85208 c 0.49365,-0.50932 0.95708,-0.92604 1.02984,-0.92604 0.0728,0 -0.27161,0.41672 -0.76526,0.92604 -0.49366,0.50932 -0.95709,0.92604 -1.02985,0.92604 -0.0728,0 0.27161,-0.41672 0.76527,-0.92604 z m 1.32291,-1.29052 c 0,-0.0549 0.20836,-0.2633 0.46302,-0.46302 0.41965,-0.32911 0.42901,-0.31975 0.0999,0.0999 -0.34564,0.44073 -0.56292,0.58089 -0.56292,0.36313 z m 1.44276,-3.935 -1.04588,-1.12448 1.12448,1.04588 c 1.04575,0.97267 1.24606,1.20308 1.04588,1.20308 -0.0432,0 -0.54924,-0.50602 -1.12448,-1.12448 z m -1.74109,-1.71979 c -0.32911,-0.41965 -0.31975,-0.42901 0.0999,-0.0999 0.44073,0.34564 0.58089,0.56292 0.36313,0.56292 -0.0549,0 -0.2633,-0.20836 -0.46302,-0.46302 z"
         id="path11165" />
      <path
         style="fill:#333333;fill-opacity:0.59960282;stroke-width:0.264583"
         d="m 261.83939,204.11405 c -21.92885,-3.05726 -41.44678,-19.17606 -48.44568,-40.21034 -5.80856,-16.82977 -3.89436,-36.23126 5.58594,-51.36757 9.44312,-15.687885 26.33133,-26.64025 44.56313,-28.60694 17.81828,-2.212318 36.47009,4.015584 49.26778,16.63412 11.40804,11.08166 18.45689,26.73381 18.33812,42.72017 0.74799,20.99158 -10.88415,41.67051 -28.77335,52.511 -10.90918,6.79729 -24.01718,9.76311 -36.80027,8.67763 -1.24917,-0.0708 -2.49712,-0.17839 -3.73567,-0.35807 z m 8.802,-52.57333 c 7.99694,7.24318 15.34638,15.15683 23.1548,22.5966 2.26703,-2.29106 6.09449,-4.96759 6.97229,-7.45431 -7.59502,-7.53683 -15.35393,-14.91204 -22.73381,-22.66285 7.46652,-7.82728 15.31073,-15.28622 22.69848,-23.18962 -2.32898,-2.11824 -4.88144,-5.87623 -7.48496,-6.54827 -7.70848,7.34425 -15.03963,15.06895 -22.54585,22.6166 -7.74129,-7.57499 -15.354,-15.28326 -23.25235,-22.69629 -2.27921,2.12309 -5.98917,4.78027 -6.80793,7.1831 7.58641,7.59555 15.17281,15.1911 22.75922,22.78665 -7.59564,7.73887 -15.20668,15.4627 -22.85469,23.14985 2.49823,2.02688 4.99499,5.95972 7.49415,6.79181 7.53274,-7.52523 15.05828,-15.05768 22.60065,-22.57327 z"
         id="path11163" />
    </g>
  </g>
</svg>
