<?xml version="1.0" encoding="UTF-8" standalone="no"?>
<!-- Created with Inkscape (http://www.inkscape.org/) -->

<svg
   width="265.63959mm"
   height="84.14344mm"
   viewBox="0 0 265.63959 84.14344"
   version="1.1"
   id="svg19867"
   sodipodi:docname="landing-simplified.svg"
   inkscape:version="1.1.2 (0a00cf5339, 2022-02-04)"
   xmlns:inkscape="http://www.inkscape.org/namespaces/inkscape"
   xmlns:sodipodi="http://sodipodi.sourceforge.net/DTD/sodipodi-0.dtd"
   xmlns="http://www.w3.org/2000/svg"
   xmlns:svg="http://www.w3.org/2000/svg">
  <sodipodi:namedview
     id="namedview19869"
     pagecolor="#ffffff"
     bordercolor="#666666"
     borderopacity="1.0"
     inkscape:pageshadow="2"
     inkscape:pageopacity="0.0"
     inkscape:pagecheckerboard="0"
     inkscape:document-units="mm"
     showgrid="false"
     inkscape:zoom="6.4070148"
     inkscape:cx="256.82788"
     inkscape:cy="194.47434"
     inkscape:window-width="2560"
     inkscape:window-height="1376"
     inkscape:window-x="0"
     inkscape:window-y="27"
     inkscape:window-maximized="1"
     inkscape:current-layer="layer1" />
  <defs
     id="defs19864">
    <rect
       x="151.54699"
       y="-95.541629"
       width="383.73891"
       height="57.446647"
       id="rect44379" />
  </defs>
  <g
     inkscape:groupmode="layer"
     id="layer2"
     inkscape:label="Layer 2">
    <text
       xml:space="preserve"
       transform="matrix(0.26458333,0,0,0.26458333,6.557431,62.763231)"
       id="text44377"
       style="font-style:normal;font-weight:normal;font-size:40px;line-height:1.25;font-family:sans-serif;white-space:pre;shape-inside:url(#rect44379);fill:#000000;fill-opacity:1;stroke:none"><tspan
         x="151.54688"
         y="-60.150391"
         id="tspan881"><tspan
           style="font-family:favorit;-inkscape-font-specification:favorit"
           id="tspan879">Al Khatib-Glossar</tspan></tspan></text>
  </g>
  <g
     inkscape:label="Layer 1"
     inkscape:groupmode="layer"
     id="layer1"
     transform="translate(-45.908798,-67.61015)">
    <g
       id="g1022"
       transform="translate(89.621042,41.815339)"
       style="fill:#ff4848;fill-opacity:1;stroke:#ff4848;stroke-width:0.4;stroke-miterlimit:4;stroke-dasharray:none;stroke-opacity:0.68000001">
      <path
         style="fill:#ff4848;fill-opacity:1;stroke:#ff4848;stroke-width:0.4;stroke-miterlimit:4;stroke-dasharray:none;stroke-opacity:0.68000001"
         d="m -10.190534,107.49982 c 0.183473,-3.04305 0.117756,3.33413 0,0 z m -33.275895,-1.43693 c -0.01524,-1.31208 0.756678,0.82991 0,0 z m 95.462295,-3.60157 c -0.220457,-1.80535 0.8151,1.44921 0,0 z M 1.878287,101.08367 c -2.20317374,-2.404388 2.6564785,2.46292 0,0 z m 0.5291667,-0.26458 c -2.20317728,-2.404378 2.6564736,2.46289 0,0 z m 52.6059633,0.0232 c 1.646428,-0.26247 0.02055,0.4578 0,0 z m 14.903702,-0.77286 c 0.244448,-0.990252 0.113076,1.1496 0,0 z M 0.1533836,99.363881 c -1.6404007,-1.854831 2.1293008,1.936759 0,0 z m 31.6846214,-0.46302 c 0.19838,-1.462755 0.198404,1.462779 0,0 z m 39.158333,-1.5875 c 0.198386,-1.462775 0.198405,1.462793 0,0 z m -38.1,-2.116667 c 0.198386,-1.462775 0.198405,1.462793 0,0 z M -1.4341164,93.807632 c -1.6404013,-1.854833 2.12930051,1.93676 0,0 z m 0.52916667,-0.264584 c -1.64040027,-1.854832 2.12930093,1.936762 0,0 z M 136.53748,91.029507 c -0.81385,-1.213644 1.60992,1.533856 0,0 z M 43.374836,89.453315 c 3.032389,-0.100376 -0.287347,0.332389 0,0 z M -3.9721294,86.549288 c 1.5267411,-0.166852 -0.5018667,0.466127 0,0 z m 90.8630764,-0.61301 c 0.146819,-1.806239 0.146821,1.806237 0,0 z M 16.256994,84.959174 c 2.25941,-0.227897 -0.375672,0.433896 0,0 z M -2.4011658,84.157378 c 3.7417092,-0.119226 0.8225849,0.296768 0,0 z M -20.360437,79.123257 c -0.750652,-1.179131 1.504759,1.512896 0,0 z M 5.0012673,75.691154 c 3.3476648,-0.203461 0.9040761,0.355553 0,3.5e-5 z M 85.048661,72.523758 c 2.259413,-0.227897 -0.375677,0.433896 0,0 z M -32.11729,70.788882 c -2.216294,-2.231802 1.728976,1.311908 0.573152,0.607302 z M 72.492454,70.674289 c 1.526741,-0.166852 -0.501866,0.46613 0,0 z m 2.367799,-0.0064 c 3.032453,-0.100377 -0.287389,0.332386 0,0 z m 22.308949,-3.406793 c 0.244454,-0.990276 0.113066,1.149644 0,0 z M 3.4858133,66.974231 c 1.6543251,-1.475096 -0.03697,0.747507 0,0 z M -10.387802,65.750388 c 0.9997267,-1.317755 -0.335125,1.210308 0,0 z M 103.4487,65.911789 c 1.52673,-0.166874 -0.50185,0.466144 0,0 z M -18.011582,62.7423 c 1.646445,-0.262466 0.02052,0.457787 0,0 z M 3.7166464,61.131591 c -0.7506551,-1.179133 1.5047502,1.512899 0,0 z M 41.637394,60.933154 c 0.194114,-1.53858 0.114926,1.657884 0,0 z M -6.3533794,59.297206 c 1.526741,-0.166845 -0.5018798,0.466094 0,0 z M 40.853447,54.715445 c 0.146819,-1.806238 0.146821,1.806238 0,0 z m -3.459192,-0.529166 c 0.198393,-1.462813 0.1984,1.462814 0,0 z M -2.9303325,50.306884 c 1.6464485,-0.262466 0.020519,0.457787 0,0 z m 22.2249995,-2.38125 c 1.64645,-0.262467 0.02052,0.457788 0,0 z m -7.127213,-0.534679 c 1.526741,-0.166853 -0.501864,0.466159 0,0 z m 3.384156,-0.03974 c 0.366212,-0.840938 0.716585,0.700765 0,0 z m 4.007641,0.04526 c 1.646449,-0.262467 0.02052,0.457788 0,0 z M 94.982037,46.33263 c 1.526741,-0.16685 -0.501861,0.466155 0,0 z m -51.59375,-1.852084 c 1.52674,-0.166852 -0.501862,0.466159 0,0 z m -2.645833,-0.264583 c 1.526741,-0.166853 -0.501864,0.466159 0,0 z m 4.08954,-1.590113 c 2.259411,-0.227893 -0.375675,0.433891 0,0 z m -9.910373,-0.526553 c 1.52674,-0.166854 -0.501865,0.466162 0,0 z m 15.395442,-0.08384 c -3.093843,-0.661997 3.943525,0.232847 0,0 z M 187.5862,33.632622 c 1.52673,-0.166874 -0.50185,0.466173 0,0 z m 1.43868,-0.0016 c 2.26873,-0.257409 0.0974,0.426076 0,0 z m 20.25716,-0.26294 c 1.52674,-0.166863 -0.50189,0.466165 0,0 z m 1.96784,-0.0088 c 3.19295,-0.132697 0.6555,0.318753 0,0 z m -22.88172,-0.266826 c 2.70816,-0.224084 1.20675,0.37417 0,0 z m 13.48901,0.01652 c 1.64645,-0.26246 0.0205,0.457785 0,0 z m -37.96268,-0.272709 c 2.2594,-0.227905 -0.37566,0.433899 0,0 z m 45.90326,-0.0038 c 3.03211,-0.100371 -0.28714,0.332397 0,0 z m 2.37817,0.0119 c 1.64645,-0.262462 0.0205,0.457788 0,0 z m -48.54601,-0.537292 c 2.25941,-0.227897 -0.37568,0.433896 0,0 z"
         id="path1028" />
      <path
         style="fill:#ff4848;fill-opacity:1;stroke:#ff4848;stroke-width:0.4;stroke-miterlimit:4;stroke-dasharray:none;stroke-opacity:0.68000001"
         d="m -9.6613669,107.49982 c 0.1834688,-3.04305 0.1177568,3.33413 0,0 z m 2.8996111,-0.31565 c 2.2597437,-0.22789 -0.3763799,0.43455 0,0 z m 31.4935208,-4.84373 c 0.151071,-2.962623 0.142757,2.96941 0,0 z m 26.664521,0.904 c 0.244445,-0.99026 0.113077,1.14958 0,0 z m 19.579166,0 c 0.244446,-0.99026 0.113079,1.14958 0,0 z M 25.25732,102.20815 c 0.195893,-2.537037 0.118399,2.79412 0,0 z m -39.53234,-3.241143 c -0.750656,-1.179138 1.504759,1.512903 0,0 z m 46.937062,-0.595313 c 0.155689,-2.427118 0.148795,2.432406 0,0 z m -0.844923,-0.418923 c 0.244455,-0.990274 0.113065,1.149646 0,0 z m 39.473209,-1.616514 c 2.259413,-0.227896 -0.375677,0.433896 0,0 z M -5.3607183,95.803418 c -0.1753788,-1.109233 0.738697,1.138426 0,0 z m 55.4340873,0.03269 c 0.244454,-0.990277 0.113065,1.149644 0,0 z M -8.9496033,95.725861 c -0.7577834,-0.956898 1.4706659,0.86661 0,0 z m 80.5045143,0.08123 c 2.259413,-0.227897 -0.375677,0.433896 0,0 z M -15.82877,95.196694 c -0.757781,-0.956893 1.470671,0.866609 0,0 z m 14.5183331,-0.198437 c -0.7506556,-1.179134 1.50475049,1.512898 0,0 z M 139.19704,94.46909 c -2.11933,-2.359178 2.50681,2.398618 0,0 z M -7.8494949,94.402944 c 0.1983887,-1.462783 0.1984002,1.462789 0,0 z m 35.6139139,0.07745 c 3.032199,-0.100374 -0.287206,0.332396 0,0 z m 11.725617,-0.496377 c 0.244453,-0.990274 0.113063,1.149645 0,0 z m -11.993285,-0.03239 c 2.658976,-0.154151 0.467887,0.352377 0,0 z m 5.114118,-0.761365 c 0.244455,-0.990274 0.113065,1.149646 0,0 z M 137.8799,92.352414 c -2.94181,-3.145726 3.2389,3.089876 0,0 z M -17.151687,91.657215 c 1.594694,-1.907333 0.508733,0.177657 0,0 z m 12.1370834,-0.627708 c -0.7506555,-1.179134 1.5047504,1.512898 0,0 z M 35.542172,90.698778 c 0.198394,-1.46282 0.1984,1.462818 0,0 z M -7.6001251,90.356015 c -0.7253722,-1.471243 1.2646907,1.498999 0,0 z M 48.531126,90.241453 c 4.297469,-0.110226 0.979792,0.281317 0,0 z m -3.571875,-0.776237 c 1.646444,-0.262466 0.02052,0.457787 0,0 z m -58.142188,-0.462137 c 0.71973,-1.214272 1.341866,-0.122486 0,0 z M 167.2629,88.482215 c 1.59468,-1.907325 0.50874,0.177664 0,0 z M -12.389187,87.539393 c 0.567203,-1.419176 0.381009,0.915523 0,0 z m -2.415,-2.595303 c -0.750654,-1.179135 1.504759,1.512901 0,0 z m 2.823176,-0.04786 c -0.03343,-1.47211 1.170338,1.109642 0,0 z m 28.100678,-0.458094 c 1.64645,-0.262469 0.02052,0.457791 0,0 z M -5.8242127,83.903455 c 1.526741,-0.16685 -0.5018688,0.466125 0,0 z m 3.4277856,-0.275595 c 2.75266371,-0.217851 1.1302797,0.377696 0,2e-6 z M -17.45002,80.97534 c -0.750655,-1.179135 1.504759,1.5129 0,0 z m 183.41089,-0.220485 c 0.24447,-0.990273 0.11302,1.149647 0,0 z M 92.071621,80.199288 c 1.526742,-0.16685 -0.501866,0.466126 0,0 z m 3.423046,-0.259072 c 1.646445,-0.262469 0.02052,0.457791 0,0 z m 0,-0.529166 c 1.646445,-0.262467 0.02053,0.457788 0,0 z M -19.95495,78.726382 c -1.640399,-1.854831 2.129302,1.936762 0,0 z m 186.82097,0.06615 c 1.98979,-1.92534 -1.3714,1.884849 0,0 z M -21.154187,78.329507 c -0.750652,-1.179131 1.504759,1.512896 0,0 z m 37.025808,-0.246885 c 1.526741,-0.166852 -0.501866,0.46613 0,0 z m 155.045829,0 c 1.52674,-0.166852 -0.50185,0.46613 0,0 z m 1.32292,-0.529167 c 1.52674,-0.166865 -0.50187,0.466135 0,0 z M 20.242757,76.819792 c 0.503112,-1.120738 0.283507,1.361675 0,0 z M 8.1821675,76.23605 c 1.6464494,-0.262468 0.020517,0.457791 0,0 z M 29.365371,74.907622 c 1.526741,-0.166849 -0.501868,0.466125 0,0 z m -49.013589,-0.955151 c 0.999726,-1.317756 -0.335126,1.210309 0,0 z m 80.220971,-0.638739 c 3.032453,-0.100377 -0.287389,0.332386 0,0 z m -1.190072,-0.531897 c 2.344523,-0.222438 0.862691,0.391953 0,-1.1e-5 z m -92.029137,-1.728369 c -2.712245,-2.922752 2.995309,2.83202 0,0 z m 110.152542,0.1436 c 3.032131,-0.100375 -0.287162,0.332401 0,0 z m 2.645833,0 c 3.032218,-0.100376 -0.287221,0.332398 0,0 z m -2.38125,-0.529167 c 3.032202,-0.100374 -0.287211,0.332396 0,0 z m 2.179728,0.08568 c 1.670789,-0.731706 2.378458,0.575788 0,-5e-6 z m 26.286193,-2.80897 c -0.0295,-3.199167 0.33629,0.933869 0.0298,1.258011 l -0.0218,-0.473511 z m 0.52141,0.529166 c 0.14699,-3.499232 0.13815,3.507016 0,0 z M -30.679186,68.010757 c -0.750654,-1.179135 1.50476,1.512901 0,0 z m -6.473681,-1.455208 c -1.640399,-1.854831 2.129302,1.936762 0,0 z m 57.734227,0.282316 c 0.915423,-0.44487 0.612362,0.829016 0,0 z M 1.848704,66.705539 c 1.5267403,-0.166853 -0.5018669,0.46613 0,0 z M -15.4822,65.166487 c 0.183489,-3.043144 0.11774,3.334479 0,0 z m 1.312992,0.396875 c 0.155689,-2.427119 0.148795,2.432405 0,0 z m 117.474118,0.874979 c 2.25941,-0.227902 -0.37568,0.433902 0,0 z m 3.38929,-0.235569 c 0.24448,-0.990273 0.113,1.149658 0,0 z M -25.089187,62.816095 c 1.391645,-0.86889 0.98626,0.468923 0,0 z m 2.116667,-0.13838 c 1.119306,-0.571884 1.590009,0.890813 0,0 z m 13.5551333,-0.553937 c 0.1468199,-1.806237 0.14682,1.806237 0,0 z M 3.436204,61.943039 c 1.5267409,-0.16685 -0.5018689,0.466125 0,0 z m -16.527838,-0.49213 c -0.220443,-1.805357 0.815094,1.449207 0,0 z m 2.422239,-0.12088 c 0.8113313,-0.850686 0.0836,0.911686 0,0 z m 53.090733,-1.5875 c 0.198388,-1.462782 0.198405,1.462797 0,0 z M 0.01247975,59.014924 c -0.75065462,-1.179133 1.50475045,1.5129 0,0 z M 4.3588484,58.155029 c 0.1510709,-2.962625 0.1427589,2.969365 0,0 z M 3.0082272,58.022737 c 0.1941347,-1.538586 0.1148643,1.657917 0,0 z m 5.7196434,-0.04845 c 1.5267414,-0.166852 -0.5018667,0.466127 0,0 z M -0.26796271,57.44512 c 1.52674041,-0.166853 -0.50186672,0.46613 0,0 z m 29.10416671,0 c 1.526741,-0.166852 -0.501866,0.46613 0,0 z m -4.775951,-0.535556 c 3.032456,-0.100377 -0.287394,0.332386 0,0 z m -12.351467,-0.76096 c 0.244453,-0.990274 0.113063,1.149645 0,0 z m 26.905204,0.227171 c 2.708128,-0.224052 1.207008,0.374137 0,0 z M 0.86086885,55.884023 c 0.24445065,-0.990275 0.1130742,1.149646 0,0 z M 17.285922,55.509195 c 0.198383,-1.46276 0.198402,1.462782 0,0 z m 20.108333,-0.264583 c 0.198393,-1.462813 0.1984,1.462814 0,0 z M 0.38199419,55.061258 c 2.25941091,-0.227897 -0.37567476,0.433897 0,0 z M 38.030948,54.637888 c 0.999726,-1.317753 -0.335125,1.210308 0,0 z M -4.7658794,54.534706 c 1.526741,-0.16685 -0.5018686,0.466125 0,0 z M 5.3378967,54.170663 c 0.5379092,-0.580666 0.5990339,0.885367 0,0 z m 17.1317703,0.09348 c 2.658972,-0.154149 0.467897,0.352373 0,0 z m -35.896298,-0.496782 c 0.244455,-0.990274 0.113065,1.149646 0,0 z m 9.719085,-0.555567 c 1.526741,-0.166851 -0.5018667,0.466127 0,0 z m -6.829557,-0.712906 c 1.5947221,-1.907364 0.50871,0.177666 0,0 z m 2.2380783,-0.446874 c -0.2670899,-1.382296 0.8365602,1.028528 0,0 z M 16.251959,51.358061 c 2.268717,-0.257412 0.09742,0.426077 0,0 z m 23.01875,0 c 2.268717,-0.257412 0.09742,0.426077 0,0 z M 19.294667,50.83605 c 1.64645,-0.262467 0.02052,0.457788 0,0 z m 3.720704,-0.799262 c 1.52674,-0.166854 -0.501865,0.466162 0,0 z m 4.039248,-0.502766 c 0.244455,-0.990272 0.113064,1.149645 0,0 z m 4.812792,0.23557 c 2.259411,-0.227897 -0.375674,0.433896 0,0 z m 3.699132,-0.275709 c 4.925068,-0.09387 1.533139,0.268349 0,0 z M -11.396999,49.24855 c 1.6464495,-0.262468 0.02051,0.457791 0,0 z m 41.042812,-0.287792 c -0.813855,-1.213635 1.609928,1.533878 0,0 z m -46.383615,-1.466619 c 0.999726,-1.317759 -0.335125,1.210309 0,0 z m 40.930899,-0.112303 c 2.344569,-0.222456 0.862628,0.391979 0,-1.1e-5 z M -6.1053325,47.131884 c 1.6464485,-0.262466 0.020519,0.457787 0,0 z M 24.459078,46.065425 c 2.259416,-0.2279 -0.375684,0.433896 0,0 z M -8.8784225,45.800842 c 2.2594134,-0.227898 -0.3756808,0.433893 0,0 z M 33.334121,45.274288 c 1.52674,-0.166852 -0.501862,0.466158 0,0 z M 2.3778706,45.009705 c 1.5267406,-0.166854 -0.5018646,0.46616 0,0 z m 3.1908592,-1.07603 c -0.8138537,-1.213636 1.6099179,1.533854 0,0 z M 11.63062,43.407576 c 2.594204,-0.172698 3.886403,0.211921 0.33088,0.0905 0.162605,0.113774 -1.358212,-0.115494 -0.33088,-0.0905 z m 34.188527,-0.59838 c 0.633644,-1.057055 0.421965,0.983972 0,0 z M 31.217454,42.099289 c 1.52674,-0.166854 -0.501865,0.466162 0,0 z m -3.96875,-0.529167 c 1.526741,-0.166853 -0.501864,0.466159 0,0 z m 1.838632,-0.0064 c 3.032383,-0.100375 -0.287341,0.332386 0,0 z m 83.142224,-1.235681 c 1.59471,-1.907344 0.50873,0.17766 0,0 z m 5.29167,-3.439583 c 1.5947,-1.907333 0.50873,0.177654 0,0 z m -16.53646,-0.958439 c 1.98979,-1.925338 -1.371403,1.884848 0,0 z m 85.80768,-2.297407 c 1.52674,-0.166852 -0.50185,0.466159 0,0 z m 21.69584,-0.264583 c 1.52674,-0.166861 -0.50189,0.466161 0,0 z m 5.02708,0 c 1.52674,-0.166864 -0.50187,0.466163 0,0 z m 1.0418,0.0055 c 1.64645,-0.26246 0.0205,0.457785 0,0 z m 3.19153,-0.0055 c 1.52675,-0.166882 -0.50183,0.466176 0,0 z m -44.86341,-0.266227 c 2.26871,-0.257411 0.0974,0.426076 0,0 z m 17.87591,0.0016 c 1.52674,-0.166851 -0.50184,0.466159 0,0 z m 10.31875,0 c 1.52673,-0.166873 -0.50185,0.466172 0,0 z m 1.85209,0 c 1.52674,-0.166862 -0.50189,0.466165 0,0 z m -42.59792,-0.264583 c 1.52674,-0.166867 -0.50187,0.466167 0,0 z m 58.47292,0 c 1.52674,-0.16687 -0.50187,0.466171 0,0 z"
         id="path1026" />
      <path
         style="fill:#ff4848;fill-opacity:1;stroke:#ff4848;stroke-width:0.4;stroke-miterlimit:4;stroke-dasharray:none;stroke-opacity:0.68000001"
         d="m -20.074877,109.33651 c 0.321907,-0.25161 12.299538,0.3814 5.537585,-1.26374 -5.767164,-0.63866 5.5846993,-1.01694 0.02218,-1.85681 -0.256664,-0.98751 1.685398,-3.14214 0.087,-4.04652 3.746842,-1.55979 -0.860478,-3.049807 -0.431594,-4.785185 2.781389,-1.636936 2.107136,-6.672464 1.957956,-8.717186 -6.032458,3.876588 -11.943289,8.017742 -18.34792,11.321307 -3.458748,2.237434 -8.760985,5.112334 -11.673879,5.887914 6.901656,-3.52289 13.680526,-7.2962 20.25473,-11.397553 3.638643,-2.066852 7.011983,-4.91783 10.664362,-6.703585 -0.481039,3.647657 0.08264,8.164856 -2.574291,10.23317 2.146435,1.157776 2.308055,3.440278 0.73936,4.311878 2.5094,1.76707 -2.725317,3.90711 1.365011,4.08396 0.39512,1.44155 -2.281498,1.222 0.741621,1.95748 1.9305825,2.02526 -6.423305,1.48672 -8.342125,0.97487 z m 10.021607,-1.77055 c -0.845821,-3.76594 5.4311776,-1.40788 2.1789476,-5.04432 0.497992,-1.95245 -1.2295242,-9.367813 -1.3959657,-3.735601 1.3166939,2.455521 0.5983098,7.355061 -1.5313989,5.141871 0.715705,-4.06338 0.9246824,-7.761659 0.621025,-11.918122 0.9653077,-2.432436 -1.13149,-8.311238 -1.82993,-6.254553 -2.196554,-4.461251 -6.310857,-7.352365 -9.329538,-10.687168 0.792293,-4.302077 -7.866127,-4.222301 -10.108807,-7.925806 -1.974797,-1.245108 -6.836833,-5.915833 -1.974627,-2.111874 3.565487,3.476906 8.157253,5.576707 12.430797,7.822006 1.738317,0.50054 3.754693,4.724972 2.040982,3.146744 1.357615,3.752368 5.645871,5.338352 7.596839,8.740049 1.035893,1.721134 5.9867319,8.359888 1.9224761,4.47128 -1.7163391,5.000902 3.083061,8.846608 2.1660252,13.895264 2.0227758,1.43763 2.1064755,6.83831 -0.6248273,3.40855 -2.501523,-3.71275 -1.8339907,6.34816 -2.162,1.05165 z m 4.2786667,-0.55963 c -1.7030177,-4.51498 -2.7187858,1.7424 0,0 z m -3.5622574,-3.28087 c 0.3268429,-2.75502 -0.7176483,-5.117243 -0.6609409,-0.66286 -0.099545,0.24504 0.095083,1.42073 0.6609409,0.66286 z m -0.4105434,-5.949078 c -0.4365339,-2.276555 -0.2646119,2.874928 0,0 z m 0.9509204,-8.869842 c -1.2282823,-0.976842 1.1894616,1.578812 0,0 z M -19.561557,74.946349 c -2.814148,-1.105274 0.635417,1.594697 0,0 z m 14.3483386,33.650621 c 4.53552485,0.80464 0.118614,-4.88143 1.1722461,-7.76793 1.1407585,-1.962197 -2.4239999,-2.725889 -1.8053272,-0.68295 -0.027691,1.5106 2.5592071,4.84746 0.7183593,3.90516 -0.6391893,-2.76607 -3.3159264,-6.849201 -2.3025371,-10.357125 3.5170323,2.720192 -2.1464051,-4.84642 1.0813356,-0.897372 1.4374717,2.083262 5.8964754,9.773867 1.9036,3.950243 -1.6013544,-2.836697 0.3058197,1.692386 -2.0719675,1.49617 4.5294836,-0.500708 2.1150942,5.891194 3.8485988,9.014784 1.1717708,2.01399 -1.4312631,1.97802 -2.544308,1.33902 z M -5.4113728,97.103213 c -0.06396,-2.951107 -3.2525479,-3.690052 -1.6332305,-0.107352 0.4363249,0.319269 1.1807491,0.482107 1.6332305,0.107352 z m 71.8680198,9.290657 c -3.313067,0.0945 -2.206328,-4.97943 -6.217709,-4.20229 -4.019797,-3.033529 -7.63007,-0.0445 -8.88988,3.31248 0.51341,-4.54355 -1.68719,-8.878417 -1.374135,-13.43614 2.952175,-2.536229 -0.0087,-1.862767 -2.090464,-1.872539 -3.302061,0.09642 -8.503253,-0.994007 -6.86738,4.071695 -1.512968,6.682634 -2.432094,-8.429856 -4.717048,-2.609381 -0.865826,1.59139 -0.573653,8.511195 -1.484351,3.369556 1.200478,-1.950348 0.904962,-7.957683 -1.657808,-3.98721 -0.862663,2.325768 0.197238,7.560975 -1.027271,8.168807 0.751166,-2.815421 -1.730689,-4.695647 -4.376247,-4.723834 -4.62673,1.628889 -2.429268,8.370946 -1.420478,11.667086 -5.371392,-0.48138 -11.168345,0.80111 -16.298377,-1.00264 -4.5809965,-1.45083 -8.8593078,-4.15861 -11.7698889,-7.995848 3.6522131,3.575768 7.8919936,6.451008 12.8003059,8.015208 4.874904,0.76665 9.945472,0.0664 14.888925,0.67682 -1.298706,-3.08589 -3.031476,-9.636402 1.043604,-11.626963 1.992488,-1.780087 6.045618,3.881036 5.271801,0.316796 -0.753079,-3.024013 1.597224,-6.757988 4.32348,-4.794427 3.270494,-1.451288 3.267424,9.817863 3.881808,3.348876 -0.575182,-5.776282 7.734955,-2.565597 11.220932,-3.368374 2.513187,0.2685 -3.234777,2.823855 -1.084398,5.215398 0.584382,1.94695 0.525566,7.750834 1.951971,7.409654 2.468074,-3.88063 9.407666,-0.86057 11.640228,1.38288 0.913151,4.45827 9.242615,2.15098 5.428706,-2.51815 0.150397,-1.843837 0.79578,-4.600916 0.289613,-5.564609 5.498406,0.589272 11.13258,0.281553 16.390171,2.306735 4.742573,-0.681162 1.118176,-6.608963 -0.434638,-8.683884 0.478866,-4.29755 -0.136092,-10.216781 6.130051,-8.97133 2.2435,-2.189094 9.22261,2.109884 6.772129,-2.923132 1.189337,-4.227523 -2.086945,-7.826392 -1.098728,-11.970403 2.560839,-0.620896 7.218619,2.421651 8.202419,-1.650454 2.0836,4.909189 -0.48458,10.421187 -0.96771,15.46521 1.04348,3.573972 -1.3489,9.683245 0.20236,11.804938 4.39581,-2.340355 9.19537,-3.786866 13.446,-6.420056 4.02819,-1.096759 8.34583,-4.377729 11.54914,-5.405369 -4.95389,3.727191 -11.07545,5.327942 -16.34807,8.530662 -3.16501,0.512203 -7.73404,4.723436 -9.98128,3.539755 1.36134,-4.908771 -0.12163,-10.057369 1.18261,-14.921816 0.23097,-2.979242 2.65238,-9.67917 0.76235,-10.935612 -2.82962,2.204346 -10.721673,-2.062152 -7.227504,4.803472 1.568914,3.128771 0.574045,7.176034 1.07621,10.28692 -3.869325,-0.436305 -9.711015,-0.582173 -12.416397,2.077833 0.635789,2.622115 -2.329005,6.446875 0.0965,8.267956 4.140842,2.891902 1.178585,10.587164 -3.868229,6.809066 -4.048589,-1.104956 -8.272964,-1.125108 -12.435417,-1.359805 -1.476959,3.327368 0.553116,6.432583 -0.745283,9.706253 -1.037028,0.8434 -2.534963,0.43972 -3.752624,0.39021 z M 143.3181,97.84848 c -2.55919,-2.001744 -7.89472,-6.845263 -7.88015,-8.208036 3.00927,3.401597 6.25389,6.719474 10.08979,9.19389 2.91473,-2.842728 7.436,-3.192741 10.85047,-5.408997 3.60211,-2.85918 11.67224,-2.309421 11.92912,-7.810377 -3.65464,-3.904931 -1.4028,-9.099408 4.24723,-8.014562 7.48204,-0.760013 14.68722,-2.995129 21.68134,-5.6713 7.29542,-2.264534 15.03117,-2.701429 22.42344,-4.397428 -3.27941,1.768402 -8.46402,1.598374 -12.41406,2.61893 -7.14428,0.779953 -13.71292,3.735987 -20.54015,5.734192 -4.78232,1.206723 -9.61469,2.112504 -14.53009,2.521618 -6.8506,1.51645 3.7304,8.249003 -2.19086,10.753874 -4.35534,2.114944 -8.89505,3.781911 -13.23592,5.927385 -3.76326,0.272373 -7.56049,6.065351 -10.43016,2.760811 z M 0.04623,97.038234 c -1.758798,-2.864392 -7.4334995,-7.735856 -6.5040897,-9.990054 1.273162,1.45949 -1.1151376,-0.503069 0.7838731,2.129643 2.3732852,1.772553 4.1931099,6.595851 6.12588139,7.154485 C -2.2627944,94.039938 -5.0631263,86.291567 1.0503421,89.971173 4.994721,92.679416 -0.78096842,85.398342 3.2563698,86.89325 5.637164,85.953593 -1.4128163,86.307213 -2.727256,86.40388 c -4.1108446,-0.380892 4.0809473,-0.826071 5.5567784,-0.510608 5.3562857,0.507535 -0.605284,1.015285 -0.3475295,2.084995 2.2528902,2.762126 -1.2495563,4.210085 -3.0069402,1.690405 -6.6080807,-1.60416 5.5512129,9.373625 0.5711773,7.369562 z m -18.190104,-0.958435 c -0.694014,-0.713473 5.292177,-0.684978 0.909873,-1.220737 -4.615915,-1.392308 6.395236,0.221292 0.619691,1.298883 l -0.563998,0.05147 z M 133.05248,87.596147 c -1.08233,-2.002392 -3.85554,-6.269258 -3.07114,-7.514018 0.61205,3.16942 3.78913,7.256274 4.38709,8.349311 -0.47286,0.832572 -1.04926,-0.743019 -1.31595,-0.835293 z M -13.411846,86.433189 c -3.976052,-4.784835 -8.231342,-9.57706 -14.058591,-12.135974 -3.27977,-1.827741 -9.255344,-5.806838 -9.820288,-7.75325 4.327663,4.297481 9.723624,7.166317 14.979663,10.155463 3.787101,3.041655 7.040837,6.768248 10.057115,10.514578 -0.447685,0.301514 -0.887235,-0.827752 -1.157899,-0.780817 z M 5.3378967,85.018039 C 0.75657672,83.670097 -4.0265547,84.460586 -8.6704972,84.422058 -4.5489311,83.621398 0.540124,83.835946 4.9343171,84.446195 9.122247,85.448208 14.038052,84.29072 17.901544,84.576962 13.798714,85.20557 9.4627486,85.75876 5.3378967,85.018039 Z M 58.14419,77.932632 c -1.524848,-3.018084 -1.491204,-5.897958 2.75621,-5.135081 -2.211574,-1.621065 5.885788,-3.559645 7.191286,-0.763689 2.503416,0.790448 8.050901,1.323843 9.12899,-0.125622 -1.717597,-0.659748 -7.956376,-0.613553 -2.961325,-1.057327 2.564304,-0.621786 9.140421,1.319802 6.411478,-1.785102 3.056433,-1.167341 4.055956,1.71691 3.998624,2.837259 2.456461,1.567407 4.077141,-3.544311 5.442963,-0.54745 -2.673953,1.99465 -8.17353,0.959191 -6.600989,-0.496467 -2.495301,0.806467 -6.673209,-0.801124 -5.966935,1.935677 -4.515267,1.326881 -9.03722,-0.09271 -13.090321,-1.641129 -3.509363,0.252337 -3.217846,1.220509 -1.605157,2.015118 -3.741951,-0.306141 -6.557752,0.616722 -4.279732,4.656348 0.330572,1.486955 -0.292232,1.544194 -0.425092,0.107465 z m 25.510373,-7.710754 c -1.126607,-0.959463 -0.639716,0.479392 0,0 z M 7.571279,78.387874 c -1.1268552,-1.589097 2.509645,1.342068 0,0 z m 7.953076,-0.653679 c 3.464497,-1.19609 2.768136,1.224018 0,0 z m 4.596458,-0.992188 c 0.519718,0.441442 3.024893,-3.664585 -0.928953,-1.7636 -3.570983,-0.740028 -7.471994,1.309126 -11.3063898,1.292668 -3.0367562,0.972232 -10.7095222,-1.104999 -6.2230519,-3.849247 -2.9530488,4.884735 6.6859519,3.119676 9.6107487,2.977967 3.277958,-1.208351 5.688536,-1.054889 8.082339,-1.495683 1.872071,2.300546 4.885113,-2.860196 2.062392,-4.970705 -1.016755,-5.499159 0.783523,5.225572 3.150245,2.197532 3.893188,-1.455117 3.817851,3.052543 0.109548,2.871566 -2.839323,-0.977912 -2.870921,4.195567 -4.556878,2.739502 z m 4.79625,-3.341071 c 6.424572,-2.16061 -3.687264,-2.866913 -1.918229,0.535342 0.639376,-0.178566 1.278801,-0.35696 1.918229,-0.535342 z m 46.541341,3.112117 c -0.508746,-1.528156 1.925853,1.457863 0,0 z M 23.85873,74.864966 c 4.342869,-0.87219 9.507527,0.149585 13.49375,-2.174595 -1.461524,-1.079367 -6.425654,0.351248 -2.699816,-1.673788 -0.987255,-2.234025 -1.701382,-5.623566 -0.05202,-1.53116 -0.551713,2.819171 5.950296,2.75191 1.326424,4.563163 -3.92131,0.666188 -8.130199,1.418153 -12.068338,0.81638 z m 17.991667,-0.396642 c -0.999385,-1.766486 -1.224665,-9.166987 -0.373537,-3.441309 0.264654,0.466409 1.511477,5.551044 0.373537,3.441309 z M 29.207996,69.491233 c 1.415244,-1.553483 0.857671,1.005719 0,0 z m -53.037768,-0.405188 c -5.284264,1.035495 -1.838374,-6.380653 -0.756946,-6.781329 -1.669387,-4.391199 1.792553,-9.394074 6.900048,-9.257952 4.058866,1.616072 3.064898,9.666629 -2.601878,8.4296 -6.191218,2.316115 2.235324,0.394664 4.387856,1.222211 1.465522,3.884896 0.169288,7.734731 -4.503352,6.426084 -1.141964,0.01586 -2.284453,0.0046 -3.425728,-0.03861 z m 7.617756,-0.888161 c 1.804429,-3.92897 -0.762161,-6.657951 -4.777837,-5.204991 -3.910965,-1.245848 -6.219504,2.669481 -4.934416,5.472501 3.22802,0.183866 6.528827,0.377909 9.712253,-0.26751 z m -5.448954,-6.597475 c 3.682705,-0.383037 8.079574,-2.14251 5.280204,-6.542925 -1.737842,-3.7728 -10.202161,0.929645 -7.437452,5.198262 -1.975651,2.172332 0.606514,2.207633 2.157248,1.344663 z m 7.612777,5.815578 c -3.275069,-4.580203 4.00434,-6.696098 4.2031511,-1.606623 -0.9107371,1.0229 -2.8097681,2.890473 -4.2031511,1.606623 z m 2.760321,-0.821875 c 3.7551034,-1.534115 -3.880474,-6.258716 -2.925273,-1.290197 -0.404137,2.408668 1.521744,2.477868 2.925273,1.290197 z M 1.2644061,66.930855 C -0.66392411,63.225119 1.5450283,61.64643 4.0833542,61.286931 0.89042788,59.597591 4.4101886,52.378237 4.2784091,58.389599 4.4140693,59.902577 4.799013,62.822528 5.6495597,59.390641 5.231725,55.835814 5.8065912,48.29884 0.26857994,50.133006 -1.1125179,50.612024 1.0540359,51.999102 -1.4089789,52.629301 0.94385519,51.81827 3.9969132,53.746888 -0.18282974,54.15777 -3.1303058,54.634886 -5.2120219,53.102734 -3.8537025,50.217526 c -2.9254271,-0.490485 -3.5360316,3.809617 -5.7003801,1.364491 -2.2623434,1.721847 -4.9783404,1.601487 -4.3460454,5.414845 4.023864,1.222113 5.4514605,-5.986793 8.3510873,-2.338622 2.9953261,-0.23498 9.5184496,0.837569 5.42866824,3.435818 2.93069956,1.123625 2.48976116,4.387991 -0.7606653,2.55255 -1.34212704,-3.890298 -8.39513744,-0.806919 -5.30172564,2.854385 -1.1846274,4.410725 -4.4966506,-1.045379 -2.6560764,-3.452309 -1.4816732,-1.117907 -3.1890532,1.874698 -3.1631292,-1.797493 -3.865488,1.485316 4.2604762,4.197499 -0.778395,3.172139 -1.880517,-4.790163 2.007946,-3.579682 1.855681,-1.705558 1.7645919,-1.69542 3.1914814,1.594128 5.0107429,-0.405781 2.8422237,-2.468627 4.3291045,-0.06658 6.23069538,1.488866 C 3.71603,60.535345 -3.1420514,57.701533 0.77545724,56.843555 2.0682227,54.015998 -3.283542,56.634568 -4.7021413,55.079372 -6.5017187,54.87506 -8.3662661,52.604577 -9.1102157,55.879515 -11.642907,57.69054 -16.159417,58.1057 -13.764485,53.807709 c 0.793322,-1.639852 3.705574,-1.851065 5.207962,-2.815803 1.1287124,3.393464 2.0408219,-3.009591 4.7733815,-1.297495 3.81379408,-0.994096 -3.1196288,4.283349 1.8716612,3.957492 2.62317392,0.619459 5.0584404,-1.270825 0.8558914,-0.684215 -4.6515749,-0.448153 2.7553136,-0.822819 -0.1618036,-2.43312 1.94136593,-2.580422 6.1508323,1.237671 6.1038465,-2.800089 4.3486059,-3.544782 2.1736861,2.420091 3.9531288,2.74761 2.7735552,1.037834 0.3706015,-2.46321 1.7499342,-2.644227 4.222399,0.382439 8.39172,-0.866153 12.71859,-0.277692 3.087152,-0.08006 2.725825,0.37544 -0.148935,0.38621 -2.164687,0.287854 -9.111808,-0.920388 -8.501574,1.077635 3.020619,-2.419201 2.63487,2.768035 5.496965,1.343217 2.820581,-0.479302 8.436735,0.657391 6.913473,-3.138675 1.31494,2.417655 0.05191,3.800408 -2.42053,3.258491 -3.290572,0.06842 -8.104034,-0.352128 -6.685821,4.49667 0.420198,5.137928 -5.989875,0.51968 -8.1222749,3.372291 -5.5696916,1.843711 3.2565999,-0.22585 5.0790119,-0.376537 4.921278,2.44117 -4.152956,3.700281 -6.268452,3.189534 -2.3702567,0.01773 -1.8407183,-4.142643 -3.1246795,-0.107474 -2.0224814,2.055686 4.0359433,-0.274419 5.0135555,2.536244 -1.8740333,3.380861 -8.6128421,-2.92142 -6.5981709,2.861425 -0.3673574,0.756829 -2.003937,0.865363 -2.676269,0.471654 z M 3.248617,66.625307 C 3.7442357,65.308654 2.0250408,62.55959 4.9723212,62.474882 1.4322893,60.145127 -0.11903451,64.963181 2.245989,66.784035 l 1.0026279,-0.15872 z M -7.0549538,64.482248 c 2.0834864,-2.784499 -3.1384952,-5.498952 -1.4989637,-0.91716 0.052583,0.806561 0.6389937,1.706187 1.4989637,0.91716 z m 17.1478628,-0.63405 c -0.7625669,-3.417912 -6.8153738,0.574107 -1.9476138,0.324297 0.6547313,-0.06428 1.3185337,-0.113516 1.9476138,-0.324297 z m 3.843946,-3.532653 c 5.705903,-2.201763 -3.843001,-1.890885 -5.836449,-0.573016 -2.2350261,1.416428 5.454701,0.996549 5.836449,0.573016 z M 4.01498,58.28732 c -0.061394,-5.050214 -1.9113932,2.651368 -0.037818,1.401465 l 0.027659,-0.630969 z m 3.4395833,0.544783 c -0.6674063,-1.036099 -0.7286795,0.556186 0,0 z m 2.4637894,-0.960097 c 2.5763723,-1.162348 -6.7770059,-2.911958 -2.8725469,0.294681 0.9636416,-1.36e-4 1.9317455,-0.07807 2.8725469,-0.294681 z M 17.527693,55.44305 c 1.109076,-3.8796 -1.001334,-4.721999 -4.250353,-3.556194 0.434815,-2.244897 -0.321428,-5.081337 -2.635638,-3.17493 0.980782,2.542236 -1.0741656,2.328313 -2.9225543,2.325761 -0.4780379,2.691668 0.5005059,4.180628 2.8809433,2.971785 0.901925,3.238332 4.025936,3.224064 6.902359,3.087223 0.0084,-0.551214 0.01682,-1.102436 0.02524,-1.653645 z m -6.10438,0.756914 c -0.573345,-2.95615 -4.9758307,-0.324759 -5.992066,-1.925899 -0.6053727,2.410636 5.54177,2.490973 5.992066,1.925899 z M 7.0426679,52.281009 c 1.1089189,-2.318141 0.9623171,-7.276561 -2.2346285,-3.710331 0.1080453,1.121494 1.3757078,8.671015 2.2346285,3.710331 z m 9.3415831,-1.188841 c 3.032104,-0.438474 -0.09662,-3.811285 -2.011992,-1.668389 -2.726987,1.744564 0.264233,2.498831 2.011992,1.668389 z M -2.6948798,66.438222 c 0.6408744,-3.099477 -3.7073161,1.86662 -2.6275022,-2.60241 0.4171729,-2.332521 0.9810162,-4.578184 2.2223835,-1.15822 1.4095532,-2.13665 2.76206235,-0.523201 2.90056023,1.792093 -0.64668472,0.797697 -1.46533143,1.709345 -2.49544153,1.968537 z m 1.6166306,-1.489509 C 0.89176117,61.104786 -5.3934676,63.7371 -1.7167326,65.478535 l 0.6384485,-0.529822 z m -2.6020792,0.369504 c 1.1431682,-2.052945 -1.2521112,-5.240828 -1.2134135,-1.399132 -0.3023639,0.760102 0.034092,2.362164 1.2134135,1.399132 z M 41.846785,61.263883 c 0.577981,-2.887192 -6.428665,-0.771976 -3.502118,-3.799893 2.74194,-0.752767 6.555304,2.535213 3.611888,4.220822 z m 0.574969,-2.195873 c -1.964742,-2.377972 -6.025894,0.269138 -1.535482,0.03003 2.056247,-0.764871 0.859492,4.503779 1.665665,0.632441 l -0.130178,-0.662461 z m -6.656774,0.179737 c -2.441798,-2.947288 -8.93439,-1.556306 -12.759758,-2.091855 -0.608881,2.878307 -2.131319,3.575918 -5.231909,2.454151 2.003693,-0.399512 -0.423136,-5.186217 2.268792,-4.991312 5.327813,-0.293974 11.029258,-0.879389 16.080692,1.12421 2.157237,0.558506 0.832167,6.70388 -0.357817,3.504806 z m 1.057344,-0.777605 c -1.174913,-5.133391 -8.139994,-3.065595 -12.14457,-3.627737 -3.455718,-1.090428 -7.4694,1.009664 -5.163891,4.564959 2.959755,0.719721 2.462732,-4.584865 6.252199,-2.675112 3.586485,0.343532 10.146721,0.05734 10.976247,2.449316 l 0.08002,-0.711431 z m 0.516556,-2.286259 c -1.168839,-1.606579 0.702928,-4.500553 0.62322,-1.556279 -1.194433,-1.981257 -0.621099,3.153181 2.098409,1.386779 1.813448,-0.606401 1.093285,-5.344997 -1.506084,-4.291788 -2.938481,-1.003813 -6.864153,0.07932 -2.91978,2.417889 2.709554,1.278897 -3.233533,0.01258 -2.414647,-2.253735 -0.795385,-1.917192 5.19813,-0.360534 7.287777,-0.296421 0.890854,0.915738 1.769326,5.245237 -0.708334,4.682465 -0.818257,0.05035 -1.66145,0.158839 -2.460561,-0.08891 z m -56.282071,-4.555937 c -3.580748,-2.833043 3.810935,-3.142853 2.4652,-4.010044 2.16035,2.043813 -0.178021,4.285531 -2.4652,4.010044 z m 1.932458,-0.886605 c 3.890394,-2.595192 -5.744383,-1.680479 -1.280703,0.503776 l 0.553831,-0.120019 0.726872,-0.383759 z m 3.579567,-0.557939 c -3.266559,-6.202886 5.5502719,-2.468945 7.4005657,-5.40162 1.5273165,-1.180541 5.50857469,1.743656 1.0210125,0.218395 -3.0850045,1.147644 -2.3178597,2.31106 0.3085717,2.2965 2.2798569,3.872287 -0.7763148,-1.904394 -2.986695,-0.03338 -1.6486172,-3.067668 -9.4893129,0.758326 -4.4012759,3.203664 2.1796355,0.61421 7.3166327,-2.699051 2.2041415,-1.560562 -3.1098625,1.042212 -3.5336775,-1.898898 -0.056945,-1.466572 3.066349,0.03184 -5.1660252,1.172342 -0.5952322,1.328393 2.1215442,-1.773986 5.507251,0.321685 1.8518512,1.4663 -1.3650832,0.196269 -3.8872962,1.696509 -4.7459942,-0.05111 z m 43.154941,-0.63073 c -3.619696,-5.133112 6.855528,-4.221604 10.052994,-5.203842 2.725682,-1.06833 10.135007,0.373207 4.793774,3.338133 -4.031956,2.308596 -8.095929,2.747061 -12.968198,2.446793 -0.653318,-0.01349 -1.408077,-0.04739 -1.87857,-0.581084 z M 40.52748,48.896888 c 1.759797,-0.888381 8.686584,-3.064828 3.604566,-4.352685 -4.752725,0.724148 -12.403409,-0.312913 -15.077691,3.516822 2.445013,3.072278 7.495297,1.421658 11.025397,1.25824 L 40.52748,48.896889 Z M 10.166542,47.269934 c 0.841717,-3.184992 7.449522,-2.089687 10.555125,-3.249106 2.148461,-1.045705 9.543748,-0.954532 5.405849,2.103047 -5.097771,1.011867 -10.339893,0.890116 -15.499045,1.346806 l -0.461927,-0.200747 z m 9.194271,-0.772227 c 1.972304,-0.141105 9.88166,-0.01138 6.736918,-2.61145 -4.825517,0.186311 -9.618801,1.234567 -14.341919,2.149431 -3.1896646,1.555843 6.477246,0.281446 7.605001,0.462019 z M 94.50248,46.7824 c -2.66734,0.172331 -7.650426,-4.259429 -2.513542,-1.13506 4.805432,2.312347 9.838702,-0.285811 13.926192,-2.815199 3.66463,-2.163564 7.56879,-3.923969 11.1076,-6.360431 1.76208,-1.322538 2.84617,-1.101141 1.95371,0.142362 2.9647,-0.506387 6.18111,-1.830804 9.11173,-1.502783 3.56235,1.664627 6.90373,4.314356 11.08224,3.684896 5.28457,0.369745 9.80779,-2.303286 14.23052,-4.667701 8.09475,-3.493737 16.99034,-0.465465 25.44033,-0.930367 14.29516,0.07429 28.5934,-0.280023 42.88638,-0.05738 -15.14664,0.413937 -30.31066,0.523949 -45.46416,0.549339 -8.34471,-0.234794 -17.46161,-2.619579 -25.11575,1.926934 -4.23727,3.375223 -9.71866,3.751511 -14.90601,3.607273 -2.1531,-0.01285 -3.89663,-1.778065 -5.88756,-2.495874 -4.43454,-2.575213 -9.82476,-0.02684 -14.32355,1.276931 -4.66502,2.040265 -8.07486,6.368026 -12.83207,8.069306 -3.10462,0.490485 -4.993595,0.881828 -8.69606,0.707751 z m 9.88499,-1.427199 c 1.97566,-1.313305 8.63335,-5.968356 2.69025,-2.824861 -1.42015,0.848086 -7.80599,4.235623 -2.69025,2.824861 z m 13.69668,-8.807031 c 0.45106,-1.030345 -2.0555,1.314765 0,0 z M 2.2587314,45.394001 c 2.5804101,-0.731502 5.3635667,-2.177902 0.8302069,-1.408832 1.9599285,-1.741691 4.2690673,1.406035 6.8535425,-0.758071 1.7440512,-0.01059 9.7549852,-0.223577 5.1982642,-2.202484 5.451771,0.50064 -1.481726,3.470378 -3.750415,2.406398 -2.6001968,-0.117273 -5.9366427,1.788731 -1.30652,1.135195 2.737686,-0.397994 3.474523,0.439495 0.200486,0.493376 -2.7081098,-0.109443 -5.3435653,1.142243 -8.0255646,0.334418 z m 4.0004127,-0.195799 c -1.5170655,-1.790304 -2.4141911,1.122791 0,0 z M 31.067607,43.539855 c 3.426554,-1.230768 2.932761,-1.314479 -0.22259,-1.473262 -3.11505,-1.281541 -9.908143,1.622191 -10.991832,-0.08977 5.181423,0.619557 9.951813,-2.110108 15.053248,-1.954321 -0.485816,4.337815 6.748963,1.165063 10.01456,2.065749 2.745473,-0.123761 9.388224,-1.6455 6.52711,0.945324 3.183769,1.313158 4.345193,-3.10447 7.306681,-2.331369 6.61755,0.225265 13.34962,-1.466231 19.825206,0.653664 4.515043,0.620428 9.307409,2.410589 13.697208,0.351542 1.960587,0.170118 4.94678,2.76089 5.673475,-1.19946 0.822218,-4.666848 6.324167,-5.917711 10.110557,-7.454924 4.69528,-0.488065 8.00206,-3.623172 11.51005,-6.046176 2.47222,-1.003964 4.14942,-1.111932 0.53415,0.271236 -3.76127,2.273094 -6.9206,5.918312 -11.9433,6.139101 -4.03294,1.619456 -9.603485,3.09634 -10.176641,8.180302 -2.08613,4.064558 -5.837042,-1.789113 -8.943172,1.595127 -7.191682,-0.01711 -14.063888,-3.216549 -21.292477,-2.311271 -3.628546,0.141944 -7.258028,0.257697 -10.887398,0.376053 -2.474492,3.343583 -7.079456,1.992659 -10.663274,2.222787 -1.227195,-1.844657 -6.681251,-0.575765 -9.586632,-0.78022 -2.174822,-0.143938 -6.579375,1.092251 -3.493389,0.88232 -0.520163,0.06264 -1.718414,0.636682 -2.05154,-0.04243 z m 19.791762,-1.134329 c 2.341159,-1.903651 -7.600449,0.952272 -1.716226,0.372986 l 0.687842,-0.08264 z m -15.89219,-0.985393 c -0.979394,-2.558135 -10.440343,1.055672 -3.356157,0.330729 1.069648,-0.131843 2.417921,0.25427 3.356157,-0.330729 z"
         id="path1024" />
    </g>
  </g>
</svg>
